solid mount
facet normal -0.0 1.0 -0.0
  outer loop
    vertex 34.0 30.499999999999996 20.0
    vertex 37.0 30.499999999999996 -2.9999999999999862
    vertex 34.0 30.499999999999996 -2.9999999999999947
  endloop
endfacet
facet normal -0.0 1.0 -0.0
  outer loop
    vertex 37.0 30.499999999999996 -2.9999999999999862
    vertex 34.0 30.499999999999996 20.0
    vertex 37.0 30.499999999999996 20.0
  endloop
endfacet
facet normal -0.707106781186548 0.7071067811865471 0.0
  outer loop
    vertex 69.0 12.0 9.999999999999998
    vertex 68.0 11.0 0.0
    vertex 68.0 11.0 9.999999999999998
  endloop
endfacet
facet normal -0.707106781186548 0.7071067811865471 0.0
  outer loop
    vertex 68.0 11.0 0.0
    vertex 69.0 12.0 9.999999999999998
    vertex 69.0 12.0 0.0
  endloop
endfacet
facet normal 0.707106781186548 0.7071067811865471 -0.0
  outer loop
    vertex 69.0 12.0 0.0
    vertex 70.0 11.0 9.999999999999998
    vertex 70.0 11.0 0.0
  endloop
endfacet
facet normal 0.707106781186548 0.7071067811865471 -0.0
  outer loop
    vertex 70.0 11.0 9.999999999999998
    vertex 69.0 12.0 0.0
    vertex 69.0 12.0 9.999999999999998
  endloop
endfacet
facet normal 1.0 3.342119218099277e-16 3.626719827460278e-18
  outer loop
    vertex 1.9999999999999991 1.0000000000000007 7.999999999999999
    vertex 1.9999999999999984 3.0000000000000013 6.0
    vertex 1.9999999999999978 4.000000000000002 7.999999999999999
  endloop
endfacet
facet normal 1.0 3.342119218099277e-16 3.626719827460278e-18
  outer loop
    vertex 1.9999999999999984 3.0000000000000013 6.0
    vertex 1.9999999999999991 1.0000000000000007 7.999999999999999
    vertex 1.9999999999999991 1.4999999999999996 0.0
  endloop
endfacet
facet normal 1.0 3.342119218099277e-16 3.626719827460278e-18
  outer loop
    vertex 1.9999999999999978 4.000000000000002 7.999999999999999
    vertex 1.9999999999999984 3.0000000000000013 6.0
    vertex 1.999999999999998 3.500000000000002 6.0
  endloop
endfacet
facet normal 1.0 3.342119218099277e-16 3.626719827460278e-18
  outer loop
    vertex 1.9999999999999998 -0.9999999999999994 -3.0
    vertex 1.9999999999999991 1.0000000000000007 7.999999999999999
    vertex 1.9999999999999998 -0.9999999999999999 0.0
  endloop
endfacet
facet normal 1.0 3.342119218099277e-16 3.626719827460278e-18
  outer loop
    vertex 1.9999999999999991 1.0000000000000007 7.999999999999999
    vertex 1.9999999999999998 -0.9999999999999994 -3.0
    vertex 1.9999999999999991 1.5 -3.0
  endloop
endfacet
facet normal 1.0 3.342119218099277e-16 3.626719827460278e-18
  outer loop
    vertex 1.9999999999999991 1.0000000000000007 7.999999999999999
    vertex 1.9999999999999991 1.5 -3.0
    vertex 1.9999999999999991 1.4999999999999996 0.0
  endloop
endfacet
facet normal -3.257275362942592e-16 0.9701425001453319 -0.2425356250363332
  outer loop
    vertex -0.49999999999999695 3.0 6.0
    vertex 1.9999999999999991 1.4999999999999996 0.0
    vertex -0.49999999999999695 1.4999999999999996 0.0
  endloop
endfacet
facet normal -3.257275362942592e-16 0.9701425001453319 -0.2425356250363332
  outer loop
    vertex 1.9999999999999991 1.4999999999999996 0.0
    vertex -0.49999999999999695 3.0 6.0
    vertex 1.9999999999999984 3.0000000000000013 6.0
  endloop
endfacet
facet normal -0.0 0.9701425001453319 -0.24253562503633302
  outer loop
    vertex 84.0 9.0 7.999999999999999
    vertex 88.0 7.0 0.0
    vertex 84.0 7.0 0.0
  endloop
endfacet
facet normal -0.0 0.9701425001453319 -0.24253562503633302
  outer loop
    vertex 88.0 7.0 0.0
    vertex 84.0 9.0 7.999999999999999
    vertex 88.0 9.0 7.999999999999999
  endloop
endfacet
facet normal -0.0 1.0 -0.0
  outer loop
    vertex 44.0 7.0 0.0
    vertex 63.99999999999999 7.0 -2.9999999999999947
    vertex 44.0 7.0 -2.9999999999999947
  endloop
endfacet
facet normal -0.0 1.0 -0.0
  outer loop
    vertex 63.99999999999999 7.0 -2.9999999999999947
    vertex 44.0 7.0 0.0
    vertex 63.99999999999999 7.0 0.0
  endloop
endfacet
facet normal 0.0 -1.0 3.759955310063877e-15
  outer loop
    vertex 63.99999999999999 25.499999999999993 0.0
    vertex 44.000000000000036 25.499999999999986 -2.9999999999999947
    vertex 63.99999999999999 25.499999999999986 -2.9999999999999947
  endloop
endfacet
facet normal 0.0 -1.0 3.759955310063877e-15
  outer loop
    vertex 44.000000000000036 25.499999999999986 -2.9999999999999947
    vertex 63.99999999999999 25.499999999999993 0.0
    vertex 44.000000000000036 25.499999999999993 0.0
  endloop
endfacet
facet normal 4.406197628981098e-17 -1.0 3.916620114649857e-16
  outer loop
    vertex 88.0 -0.9999999999999992 0.0
    vertex 84.0 -0.9999999999999994 -3.0
    vertex 88.0 -0.9999999999999994 -3.0
  endloop
endfacet
facet normal 4.406197628981098e-17 -1.0 3.916620114649857e-16
  outer loop
    vertex 84.0 -0.9999999999999994 -3.0
    vertex 88.0 -0.9999999999999992 0.0
    vertex 84.0 -0.9999999999999996 0.0
  endloop
endfacet
facet normal -1.8303029034956801e-19 5.952166869276383e-20 1.0
  outer loop
    vertex 86.49999999999999 1.5 0.0
    vertex 84.0 3.9999999999999996 0.0
    vertex 84.0 1.5 0.0
  endloop
endfacet
facet normal -1.8303029034956801e-19 5.952166869276383e-20 1.0
  outer loop
    vertex 84.0 3.9999999999999996 0.0
    vertex 86.49999999999999 1.5 0.0
    vertex 86.5 3.9999999999999996 0.0
  endloop
endfacet
facet normal -1.8303029034956801e-19 5.952166869276383e-20 1.0
  outer loop
    vertex -0.49999999999999695 1.4999999999999996 0.0
    vertex 1.999999999999998 3.9999999999999996 0.0
    vertex -0.49999999999999856 3.9999999999999996 -8.812395257962183e-17
  endloop
endfacet
facet normal -1.8303029034956801e-19 5.952166869276383e-20 1.0
  outer loop
    vertex 1.999999999999998 3.9999999999999996 0.0
    vertex -0.49999999999999695 1.4999999999999996 0.0
    vertex 1.9999999999999991 1.4999999999999996 0.0
  endloop
endfacet
facet normal -1.8303029034956801e-19 5.952166869276383e-20 1.0
  outer loop
    vertex 1.999999999999998 3.9999999999999996 0.0
    vertex 1.9999999999999991 1.4999999999999996 0.0
    vertex 1.999999999999998 7.0 0.0
  endloop
endfacet
facet normal -1.8303029034956801e-19 5.952166869276383e-20 1.0
  outer loop
    vertex 1.999999999999998 7.0 0.0
    vertex 1.9999999999999991 1.4999999999999996 0.0
    vertex 34.0 7.0 0.0
  endloop
endfacet
facet normal -1.8303029034956801e-19 5.952166869276383e-20 1.0
  outer loop
    vertex 34.0 7.0 0.0
    vertex 1.9999999999999991 1.4999999999999996 0.0
    vertex 84.0 1.5 0.0
  endloop
endfacet
facet normal -1.8303029034956801e-19 5.952166869276383e-20 1.0
  outer loop
    vertex 34.0 7.0 0.0
    vertex 84.0 1.5 0.0
    vertex 44.0 7.0 0.0
  endloop
endfacet
facet normal -1.8303029034956801e-19 5.952166869276383e-20 1.0
  outer loop
    vertex 44.0 7.0 0.0
    vertex 84.0 1.5 0.0
    vertex 63.99999999999999 7.0 0.0
  endloop
endfacet
facet normal -1.8303029034956801e-19 5.952166869276383e-20 1.0
  outer loop
    vertex 63.99999999999999 7.0 0.0
    vertex 84.0 1.5 0.0
    vertex 74.0 7.0 0.0
  endloop
endfacet
facet normal -1.8303029034956801e-19 5.952166869276383e-20 1.0
  outer loop
    vertex 74.0 7.0 0.0
    vertex 84.0 1.5 0.0
    vertex 84.0 7.0 0.0
  endloop
endfacet
facet normal -1.8303029034956801e-19 5.952166869276383e-20 1.0
  outer loop
    vertex 84.0 7.0 0.0
    vertex 84.0 1.5 0.0
    vertex 84.0 3.9999999999999996 0.0
  endloop
endfacet
facet normal -4.4061976289810904e-17 -1.0 -6.020915900573378e-32
  outer loop
    vertex 1.9999999999999998 -0.9999999999999999 0.0
    vertex -1.9999999999999998 -0.9999999999999992 -2.9999999999999947
    vertex 1.9999999999999998 -0.9999999999999994 -3.0
  endloop
endfacet
facet normal -4.4061976289810904e-17 -1.0 -6.020915900573378e-32
  outer loop
    vertex -1.9999999999999998 -0.9999999999999992 -2.9999999999999947
    vertex 1.9999999999999998 -0.9999999999999999 0.0
    vertex -2.0 -0.9999999999999998 -1.9130630401080084e-16
  endloop
endfacet
facet normal -0.0 -0.0 1.0
  outer loop
    vertex -1.9999999999999998 1.0000000000000009 7.999999999999999
    vertex -0.4999999999999976 3.9999999999999996 7.999999999999999
    vertex -1.9999999999999998 9.0 7.999999999999999
  endloop
endfacet
facet normal -0.0 -0.0 1.0
  outer loop
    vertex -0.4999999999999976 3.9999999999999996 7.999999999999999
    vertex -1.9999999999999998 1.0000000000000009 7.999999999999999
    vertex 1.9999999999999991 1.0000000000000007 7.999999999999999
  endloop
endfacet
facet normal -0.0 -0.0 1.0
  outer loop
    vertex -1.9999999999999998 9.0 7.999999999999999
    vertex -0.4999999999999976 3.9999999999999996 7.999999999999999
    vertex -0.49999999999999994 6.0 7.999999999999999
  endloop
endfacet
facet normal -0.0 -0.0 1.0
  outer loop
    vertex -0.4999999999999976 3.9999999999999996 7.999999999999999
    vertex 1.9999999999999991 1.0000000000000007 7.999999999999999
    vertex 1.9999999999999978 4.000000000000002 7.999999999999999
  endloop
endfacet
facet normal -0.0 -0.0 1.0
  outer loop
    vertex -0.49999999999999994 6.0 7.999999999999999
    vertex 1.9999999999999991 9.0 7.999999999999999
    vertex -1.9999999999999998 9.0 7.999999999999999
  endloop
endfacet
facet normal -0.0 -0.0 1.0
  outer loop
    vertex 1.9999999999999991 9.0 7.999999999999999
    vertex -0.49999999999999994 6.0 7.999999999999999
    vertex 1.9999999999999991 6.0 7.999999999999999
  endloop
endfacet
facet normal 0.0 -0.9701425001453319 0.24253562503633308
  outer loop
    vertex 86.5 6.0 7.999999999999999
    vertex 84.0 3.9999999999999996 0.0
    vertex 86.5 3.9999999999999996 0.0
  endloop
endfacet
facet normal 0.0 -0.9701425001453319 0.24253562503633308
  outer loop
    vertex 84.0 3.9999999999999996 0.0
    vertex 86.5 6.0 7.999999999999999
    vertex 84.0 6.0 7.999999999999999
  endloop
endfacet
facet normal 3.392995169731864e-17 -0.9701425001453319 0.24253562503633302
  outer loop
    vertex 1.999999999999998 3.9999999999999996 0.0
    vertex -0.49999999999999994 6.0 7.999999999999999
    vertex -0.49999999999999856 3.9999999999999996 -8.812395257962183e-17
  endloop
endfacet
facet normal 3.392995169731864e-17 -0.9701425001453319 0.24253562503633302
  outer loop
    vertex -0.49999999999999994 6.0 7.999999999999999
    vertex 1.999999999999998 3.9999999999999996 0.0
    vertex 1.9999999999999991 6.0 7.999999999999999
  endloop
endfacet
facet normal 1.0 -0.0 -1.3218592886943268e-16
  outer loop
    vertex 1.999999999999998 7.0 0.0
    vertex 1.9999999999999991 6.0 7.999999999999999
    vertex 1.999999999999998 3.9999999999999996 0.0
  endloop
endfacet
facet normal 1.0 -0.0 -1.3218592886943268e-16
  outer loop
    vertex 1.9999999999999991 6.0 7.999999999999999
    vertex 1.999999999999998 7.0 0.0
    vertex 1.9999999999999991 9.0 7.999999999999999
  endloop
endfacet
facet normal -1.0 0.0 0.0
  outer loop
    vertex 84.0 6.0 7.999999999999999
    vertex 84.0 7.0 0.0
    vertex 84.0 3.9999999999999996 0.0
  endloop
endfacet
facet normal -1.0 0.0 0.0
  outer loop
    vertex 84.0 7.0 0.0
    vertex 84.0 6.0 7.999999999999999
    vertex 84.0 9.0 7.999999999999999
  endloop
endfacet
facet normal -0.0 -0.0 1.0
  outer loop
    vertex 88.0 1.0000000000000007 7.999999999999999
    vertex 84.0 4.0 7.999999999999999
    vertex 84.0 1.0000000000000007 7.999999999999999
  endloop
endfacet
facet normal -0.0 -0.0 1.0
  outer loop
    vertex 84.0 4.0 7.999999999999999
    vertex 88.0 1.0000000000000007 7.999999999999999
    vertex 86.49999999999999 4.0 7.999999999999999
  endloop
endfacet
facet normal -0.0 -0.0 1.0
  outer loop
    vertex 86.49999999999999 4.0 7.999999999999999
    vertex 88.0 1.0000000000000007 7.999999999999999
    vertex 86.5 6.0 7.999999999999999
  endloop
endfacet
facet normal -0.0 -0.0 1.0
  outer loop
    vertex 86.5 6.0 7.999999999999999
    vertex 84.0 9.0 7.999999999999999
    vertex 84.0 6.0 7.999999999999999
  endloop
endfacet
facet normal -0.0 -0.0 1.0
  outer loop
    vertex 84.0 9.0 7.999999999999999
    vertex 86.5 6.0 7.999999999999999
    vertex 88.0 9.0 7.999999999999999
  endloop
endfacet
facet normal -0.0 -0.0 1.0
  outer loop
    vertex 88.0 9.0 7.999999999999999
    vertex 86.5 6.0 7.999999999999999
    vertex 88.0 1.0000000000000007 7.999999999999999
  endloop
endfacet
facet normal -0.0 1.0 -0.0
  outer loop
    vertex -1.9999999999999991 7.0 -1.9130630401080084e-16
    vertex 34.0 7.0 -2.9999999999999947
    vertex -1.9999999999999984 7.0 -2.9999999999999947
  endloop
endfacet
facet normal -0.0 1.0 -0.0
  outer loop
    vertex 34.0 7.0 -2.9999999999999947
    vertex -1.9999999999999991 7.0 -1.9130630401080084e-16
    vertex 34.0 7.0 0.0
  endloop
endfacet
facet normal -0.0 1.0 -0.0
  outer loop
    vertex 34.0 7.0 0.0
    vertex -1.9999999999999991 7.0 -1.9130630401080084e-16
    vertex 1.999999999999998 7.0 0.0
  endloop
endfacet
facet normal -0.0 -0.0 1.0
  outer loop
    vertex 44.0 28.499999999999993 20.0
    vertex 34.0 30.499999999999996 20.0
    vertex 34.0 28.499999999999993 20.0
  endloop
endfacet
facet normal -0.0 -0.0 1.0
  outer loop
    vertex 34.0 30.499999999999996 20.0
    vertex 44.0 28.499999999999993 20.0
    vertex 37.0 30.499999999999996 20.0
  endloop
endfacet
facet normal -0.0 -0.0 1.0
  outer loop
    vertex 37.0 30.499999999999996 20.0
    vertex 44.0 28.499999999999993 20.0
    vertex 41.0 30.499999999999996 20.0
  endloop
endfacet
facet normal -0.0 -0.0 1.0
  outer loop
    vertex 41.0 30.499999999999996 20.0
    vertex 44.0 28.499999999999993 20.0
    vertex 44.0 30.499999999999996 20.0
  endloop
endfacet
facet normal 0.0 0.0 -1.0
  outer loop
    vertex 1.999999999999998 3.500000000000002 6.0
    vertex -0.49999999999999695 3.0 6.0
    vertex -0.49999999999999734 3.5 6.0
  endloop
endfacet
facet normal 0.0 0.0 -1.0
  outer loop
    vertex -0.49999999999999695 3.0 6.0
    vertex 1.999999999999998 3.500000000000002 6.0
    vertex 1.9999999999999984 3.0000000000000013 6.0
  endloop
endfacet
facet normal -7.40581307913126e-16 0.9701425001453319 -0.24253562503633289
  outer loop
    vertex -0.4999999999999976 3.9999999999999996 7.999999999999999
    vertex 1.999999999999998 3.500000000000002 6.0
    vertex -0.49999999999999734 3.5 6.0
  endloop
endfacet
facet normal -7.40581307913126e-16 0.9701425001453319 -0.24253562503633289
  outer loop
    vertex 1.999999999999998 3.500000000000002 6.0
    vertex -0.4999999999999976 3.9999999999999996 7.999999999999999
    vertex 1.9999999999999978 4.000000000000002 7.999999999999999
  endloop
endfacet
facet normal 4.298729394127892e-18 -1.0 0.0
  outer loop
    vertex 84.0 1.5 0.0
    vertex 1.9999999999999991 1.5 -3.0
    vertex 84.0 1.5000000000000004 -3.0
  endloop
endfacet
facet normal 4.298729394127892e-18 -1.0 0.0
  outer loop
    vertex 1.9999999999999991 1.5 -3.0
    vertex 84.0 1.5 0.0
    vertex 1.9999999999999991 1.4999999999999996 0.0
  endloop
endfacet
facet normal 5.0894927545978006e-17 -0.9701425001453319 0.24253562503633297
  outer loop
    vertex 88.0 1.0000000000000007 7.999999999999999
    vertex 84.0 -0.9999999999999996 0.0
    vertex 88.0 -0.9999999999999992 0.0
  endloop
endfacet
facet normal 5.0894927545978006e-17 -0.9701425001453319 0.24253562503633297
  outer loop
    vertex 84.0 -0.9999999999999996 0.0
    vertex 88.0 1.0000000000000007 7.999999999999999
    vertex 84.0 1.0000000000000007 7.999999999999999
  endloop
endfacet
facet normal 2.531568431394846e-32 0.9701425001453319 -0.24253562503633308
  outer loop
    vertex -1.9999999999999998 9.0 7.999999999999999
    vertex 1.999999999999998 7.0 0.0
    vertex -1.9999999999999991 7.0 -1.9130630401080084e-16
  endloop
endfacet
facet normal 2.531568431394846e-32 0.9701425001453319 -0.24253562503633308
  outer loop
    vertex 1.999999999999998 7.0 0.0
    vertex -1.9999999999999998 9.0 7.999999999999999
    vertex 1.9999999999999991 9.0 7.999999999999999
  endloop
endfacet
facet normal -1.0 0.0 0.0
  outer loop
    vertex 63.99999999999999 30.499999999999996 20.0
    vertex 63.99999999999999 28.499999999999993 0.0
    vertex 63.99999999999999 28.499999999999993 20.0
  endloop
endfacet
facet normal -1.0 0.0 0.0
  outer loop
    vertex 63.99999999999999 28.499999999999993 0.0
    vertex 63.99999999999999 30.499999999999996 20.0
    vertex 63.99999999999999 30.499999999999996 0.0
  endloop
endfacet
facet normal 0.0 0.9701425001453319 -0.24253562503633289
  outer loop
    vertex 84.0 4.0 7.999999999999999
    vertex 86.49999999999999 3.5000000000000004 6.0
    vertex 84.0 3.5000000000000004 6.0
  endloop
endfacet
facet normal 0.0 0.9701425001453319 -0.24253562503633289
  outer loop
    vertex 86.49999999999999 3.5000000000000004 6.0
    vertex 84.0 4.0 7.999999999999999
    vertex 86.49999999999999 4.0 7.999999999999999
  endloop
endfacet
facet normal 0.0 0.0 -1.0
  outer loop
    vertex 86.49999999999999 3.5000000000000004 6.0
    vertex 84.0 3.0000000000000004 6.0
    vertex 84.0 3.5000000000000004 6.0
  endloop
endfacet
facet normal 0.0 0.0 -1.0
  outer loop
    vertex 84.0 3.0000000000000004 6.0
    vertex 86.49999999999999 3.5000000000000004 6.0
    vertex 86.49999999999999 3.0000000000000004 6.0
  endloop
endfacet
facet normal -1.0 4.8131568318780365e-15 -1.35078917539803e-15
  outer loop
    vertex 86.49999999999999 3.0000000000000004 6.0
    vertex 86.5 3.9999999999999996 0.0
    vertex 86.49999999999999 1.5 0.0
  endloop
endfacet
facet normal -1.0 4.8131568318780365e-15 -1.35078917539803e-15
  outer loop
    vertex 86.5 3.9999999999999996 0.0
    vertex 86.49999999999999 3.0000000000000004 6.0
    vertex 86.49999999999999 3.5000000000000004 6.0
  endloop
endfacet
facet normal -1.0 4.8131568318780365e-15 -1.35078917539803e-15
  outer loop
    vertex 86.5 3.9999999999999996 0.0
    vertex 86.49999999999999 3.5000000000000004 6.0
    vertex 86.49999999999999 4.0 7.999999999999999
  endloop
endfacet
facet normal -1.0 4.8131568318780365e-15 -1.35078917539803e-15
  outer loop
    vertex 86.5 3.9999999999999996 0.0
    vertex 86.49999999999999 4.0 7.999999999999999
    vertex 86.5 6.0 7.999999999999999
  endloop
endfacet
facet normal 1.0 -0.0 -0.0
  outer loop
    vertex 88.0 7.0 -2.9999999999999947
    vertex 88.0 -0.9999999999999992 0.0
    vertex 88.0 -0.9999999999999994 -3.0
  endloop
endfacet
facet normal 1.0 -0.0 -0.0
  outer loop
    vertex 88.0 -0.9999999999999992 0.0
    vertex 88.0 7.0 -2.9999999999999947
    vertex 88.0 1.0000000000000007 7.999999999999999
  endloop
endfacet
facet normal 1.0 -0.0 -0.0
  outer loop
    vertex 88.0 1.0000000000000007 7.999999999999999
    vertex 88.0 7.0 -2.9999999999999947
    vertex 88.0 7.0 0.0
  endloop
endfacet
facet normal 1.0 -0.0 -0.0
  outer loop
    vertex 88.0 1.0000000000000007 7.999999999999999
    vertex 88.0 7.0 0.0
    vertex 88.0 9.0 7.999999999999999
  endloop
endfacet
facet normal 1.0 9.251498779418797e-16 -1.4422488591489385e-16
  outer loop
    vertex -0.49999999999999856 3.9999999999999996 -8.812395257962183e-17
    vertex -0.49999999999999695 3.0 6.0
    vertex -0.49999999999999695 1.4999999999999996 0.0
  endloop
endfacet
facet normal 1.0 9.251498779418797e-16 -1.4422488591489385e-16
  outer loop
    vertex -0.49999999999999695 3.0 6.0
    vertex -0.49999999999999856 3.9999999999999996 -8.812395257962183e-17
    vertex -0.49999999999999734 3.5 6.0
  endloop
endfacet
facet normal 1.0 9.251498779418797e-16 -1.4422488591489385e-16
  outer loop
    vertex -0.49999999999999734 3.5 6.0
    vertex -0.49999999999999856 3.9999999999999996 -8.812395257962183e-17
    vertex -0.4999999999999976 3.9999999999999996 7.999999999999999
  endloop
endfacet
facet normal 1.0 9.251498779418797e-16 -1.4422488591489385e-16
  outer loop
    vertex -0.4999999999999976 3.9999999999999996 7.999999999999999
    vertex -0.49999999999999856 3.9999999999999996 -8.812395257962183e-17
    vertex -0.49999999999999994 6.0 7.999999999999999
  endloop
endfacet
facet normal -1.0 1.0215493792860338e-16 -7.774342237447868e-17
  outer loop
    vertex -1.9999999999999998 9.0 7.999999999999999
    vertex -1.9999999999999991 7.0 -1.9130630401080084e-16
    vertex -1.9999999999999998 1.0000000000000009 7.999999999999999
  endloop
endfacet
facet normal -1.0 1.0215493792860338e-16 -7.774342237447868e-17
  outer loop
    vertex -1.9999999999999998 1.0000000000000009 7.999999999999999
    vertex -1.9999999999999998 -0.9999999999999992 -2.9999999999999947
    vertex -2.0 -0.9999999999999998 -1.9130630401080084e-16
  endloop
endfacet
facet normal -1.0 1.0215493792860338e-16 -7.774342237447868e-17
  outer loop
    vertex -1.9999999999999998 -0.9999999999999992 -2.9999999999999947
    vertex -1.9999999999999998 1.0000000000000009 7.999999999999999
    vertex -1.9999999999999984 7.0 -2.9999999999999947
  endloop
endfacet
facet normal -1.0 1.0215493792860338e-16 -7.774342237447868e-17
  outer loop
    vertex -1.9999999999999984 7.0 -2.9999999999999947
    vertex -1.9999999999999998 1.0000000000000009 7.999999999999999
    vertex -1.9999999999999991 7.0 -1.9130630401080084e-16
  endloop
endfacet
facet normal 1.0 -1.8726795264416516e-15 2.5205550897123677e-15
  outer loop
    vertex 44.000000000000036 25.499999999999986 -2.9999999999999947
    vertex 44.0 7.0 0.0
    vertex 44.0 7.0 -2.9999999999999947
  endloop
endfacet
facet normal 1.0 -1.8726795264416516e-15 2.5205550897123677e-15
  outer loop
    vertex 44.0 7.0 0.0
    vertex 44.000000000000036 25.499999999999986 -2.9999999999999947
    vertex 44.0 11.0 0.0
  endloop
endfacet
facet normal 1.0 -1.8726795264416516e-15 2.5205550897123677e-15
  outer loop
    vertex 44.0 7.0 0.0
    vertex 44.0 11.0 0.0
    vertex 43.99999999999998 9.499999999999998 9.999999999999998
  endloop
endfacet
facet normal 1.0 -1.8726795264416516e-15 2.5205550897123677e-15
  outer loop
    vertex 44.0 11.0 0.0
    vertex 44.000000000000036 25.499999999999986 -2.9999999999999947
    vertex 44.000000000000036 25.499999999999993 0.0
  endloop
endfacet
facet normal 1.0 -1.8726795264416516e-15 2.5205550897123677e-15
  outer loop
    vertex 43.99999999999998 11.0 9.999999999999998
    vertex 43.99999999999998 9.499999999999998 9.999999999999998
    vertex 44.0 11.0 0.0
  endloop
endfacet
facet normal -0.0 1.0 -0.0
  outer loop
    vertex 74.0 7.0 0.0
    vertex 88.0 7.0 -2.9999999999999947
    vertex 74.0 7.0 -2.9999999999999947
  endloop
endfacet
facet normal -0.0 1.0 -0.0
  outer loop
    vertex 88.0 7.0 -2.9999999999999947
    vertex 74.0 7.0 0.0
    vertex 88.0 7.0 0.0
  endloop
endfacet
facet normal -0.0 1.0 -0.0
  outer loop
    vertex 88.0 7.0 0.0
    vertex 74.0 7.0 0.0
    vertex 84.0 7.0 0.0
  endloop
endfacet
facet normal -1.0 0.0 0.0
  outer loop
    vertex 34.0 30.499999999999996 20.0
    vertex 34.0 28.499999999999993 0.0
    vertex 34.0 28.499999999999993 20.0
  endloop
endfacet
facet normal -1.0 0.0 0.0
  outer loop
    vertex 34.0 11.0 0.0
    vertex 34.0 7.0 -2.9999999999999947
    vertex 34.0 7.0 0.0
  endloop
endfacet
facet normal -1.0 0.0 0.0
  outer loop
    vertex 34.0 7.0 -2.9999999999999947
    vertex 34.0 11.0 0.0
    vertex 34.0 30.499999999999996 -2.9999999999999947
  endloop
endfacet
facet normal -1.0 0.0 0.0
  outer loop
    vertex 34.0 30.499999999999996 -2.9999999999999947
    vertex 34.0 11.0 0.0
    vertex 34.0 28.499999999999993 0.0
  endloop
endfacet
facet normal -1.0 0.0 0.0
  outer loop
    vertex 34.0 30.499999999999996 -2.9999999999999947
    vertex 34.0 28.499999999999993 0.0
    vertex 34.0 30.499999999999996 20.0
  endloop
endfacet
facet normal -0.0 -0.0 1.0
  outer loop
    vertex 74.0 28.499999999999993 20.0
    vertex 63.99999999999999 30.499999999999996 20.0
    vertex 63.99999999999999 28.499999999999993 20.0
  endloop
endfacet
facet normal -0.0 -0.0 1.0
  outer loop
    vertex 63.99999999999999 30.499999999999996 20.0
    vertex 74.0 28.499999999999993 20.0
    vertex 67.0 30.499999999999996 20.0
  endloop
endfacet
facet normal -0.0 -0.0 1.0
  outer loop
    vertex 67.0 30.499999999999996 20.0
    vertex 74.0 28.499999999999993 20.0
    vertex 71.0 30.499999999999996 20.0
  endloop
endfacet
facet normal -0.0 -0.0 1.0
  outer loop
    vertex 71.0 30.499999999999996 20.0
    vertex 74.0 28.499999999999993 20.0
    vertex 74.0 30.499999999999996 20.0
  endloop
endfacet
facet normal 0.0 -1.0 0.0
  outer loop
    vertex 74.0 28.499999999999993 20.0
    vertex 63.99999999999999 28.499999999999993 0.0
    vertex 74.0 28.499999999999993 0.0
  endloop
endfacet
facet normal 0.0 -1.0 0.0
  outer loop
    vertex 63.99999999999999 28.499999999999993 0.0
    vertex 74.0 28.499999999999993 20.0
    vertex 63.99999999999999 28.499999999999993 20.0
  endloop
endfacet
facet normal -1.0 0.0 0.0
  outer loop
    vertex 67.0 32.5 -1.4999999999999902
    vertex 67.0 30.499999999999996 -2.9999999999999902
    vertex 67.0 30.499999999999996 20.0
  endloop
endfacet
facet normal -1.0 0.0 0.0
  outer loop
    vertex 67.0 30.499999999999996 -2.9999999999999902
    vertex 67.0 32.5 -1.4999999999999902
    vertex 67.0 32.5 -2.9999999999999902
  endloop
endfacet
facet normal 1.0 -0.0 -0.0
  outer loop
    vertex 71.0 32.5 -2.9999999999999902
    vertex 71.0 30.499999999999996 20.0
    vertex 71.0 30.499999999999996 -2.9999999999999902
  endloop
endfacet
facet normal 1.0 -0.0 -0.0
  outer loop
    vertex 71.0 30.499999999999996 20.0
    vertex 71.0 32.5 -2.9999999999999902
    vertex 71.0 32.5 -1.4999999999999902
  endloop
endfacet
facet normal 1.741192358778209e-17 0.9957012159921018 0.09262336892949799
  outer loop
    vertex 67.0 30.499999999999996 20.0
    vertex 71.0 32.5 -1.4999999999999902
    vertex 67.0 32.5 -1.4999999999999902
  endloop
endfacet
facet normal 1.741192358778209e-17 0.9957012159921018 0.09262336892949799
  outer loop
    vertex 71.0 32.5 -1.4999999999999902
    vertex 67.0 30.499999999999996 20.0
    vertex 71.0 30.499999999999996 20.0
  endloop
endfacet
facet normal -0.0 -0.0 1.0
  outer loop
    vertex 38.0 11.0 0.0
    vertex 34.0 28.499999999999993 0.0
    vertex 34.0 11.0 0.0
  endloop
endfacet
facet normal -0.0 -0.0 1.0
  outer loop
    vertex 34.0 28.499999999999993 0.0
    vertex 38.0 11.0 0.0
    vertex 44.0 28.499999999999993 0.0
  endloop
endfacet
facet normal -0.0 -0.0 1.0
  outer loop
    vertex 44.0 28.499999999999993 0.0
    vertex 38.0 11.0 0.0
    vertex 38.99999999999999 12.0 0.0
  endloop
endfacet
facet normal -0.0 -0.0 1.0
  outer loop
    vertex 44.0 28.499999999999993 0.0
    vertex 38.99999999999999 12.0 0.0
    vertex 39.99999999999999 11.0 0.0
  endloop
endfacet
facet normal -0.0 -0.0 1.0
  outer loop
    vertex 44.0 28.499999999999993 0.0
    vertex 39.99999999999999 11.0 0.0
    vertex 44.0 11.0 0.0
  endloop
endfacet
facet normal -0.0 -0.0 1.0
  outer loop
    vertex 44.0 28.499999999999993 0.0
    vertex 44.0 11.0 0.0
    vertex 44.000000000000036 25.499999999999993 0.0
  endloop
endfacet
facet normal -0.0 -0.0 1.0
  outer loop
    vertex 44.0 28.499999999999993 0.0
    vertex 44.000000000000036 25.499999999999993 0.0
    vertex 44.000000000000036 30.499999999999996 0.0
  endloop
endfacet
facet normal -0.0 -0.0 1.0
  outer loop
    vertex 44.000000000000036 30.499999999999996 0.0
    vertex 44.000000000000036 25.499999999999993 0.0
    vertex 63.99999999999999 25.499999999999993 0.0
  endloop
endfacet
facet normal -0.0 -0.0 1.0
  outer loop
    vertex 44.000000000000036 30.499999999999996 0.0
    vertex 63.99999999999999 25.499999999999993 0.0
    vertex 63.99999999999999 30.499999999999996 0.0
  endloop
endfacet
facet normal -0.0 -0.0 1.0
  outer loop
    vertex 63.99999999999999 30.499999999999996 0.0
    vertex 63.99999999999999 25.499999999999993 0.0
    vertex 63.99999999999999 28.499999999999993 0.0
  endloop
endfacet
facet normal -0.0 -0.0 1.0
  outer loop
    vertex 68.0 11.0 0.0
    vertex 63.99999999999999 21.500000000000004 0.0
    vertex 63.99999999999999 11.0 0.0
  endloop
endfacet
facet normal -0.0 -0.0 1.0
  outer loop
    vertex 63.99999999999999 21.500000000000004 0.0
    vertex 68.0 11.0 0.0
    vertex 63.99999999999999 25.499999999999993 0.0
  endloop
endfacet
facet normal -0.0 -0.0 1.0
  outer loop
    vertex 63.99999999999999 25.499999999999993 0.0
    vertex 68.0 11.0 0.0
    vertex 63.99999999999999 28.499999999999993 0.0
  endloop
endfacet
facet normal -0.0 -0.0 1.0
  outer loop
    vertex 63.99999999999999 28.499999999999993 0.0
    vertex 68.0 11.0 0.0
    vertex 74.0 28.499999999999993 0.0
  endloop
endfacet
facet normal -0.0 -0.0 1.0
  outer loop
    vertex 74.0 28.499999999999993 0.0
    vertex 68.0 11.0 0.0
    vertex 69.0 12.0 0.0
  endloop
endfacet
facet normal -0.0 -0.0 1.0
  outer loop
    vertex 74.0 28.499999999999993 0.0
    vertex 69.0 12.0 0.0
    vertex 70.0 11.0 0.0
  endloop
endfacet
facet normal -0.0 -0.0 1.0
  outer loop
    vertex 74.0 28.499999999999993 0.0
    vertex 70.0 11.0 0.0
    vertex 74.0 11.0 0.0
  endloop
endfacet
facet normal -1.0 -7.13476220924802e-17 1.1461952388827586e-15
  outer loop
    vertex 64.0 9.499999999999998 9.999999999999998
    vertex 63.99999999999999 7.0 -2.9999999999999947
    vertex 63.99999999999999 7.0 0.0
  endloop
endfacet
facet normal -1.0 -7.13476220924802e-17 1.1461952388827586e-15
  outer loop
    vertex 63.99999999999999 7.0 -2.9999999999999947
    vertex 64.0 9.499999999999998 9.999999999999998
    vertex 63.99999999999999 11.0 0.0
  endloop
endfacet
facet normal -1.0 -7.13476220924802e-17 1.1461952388827586e-15
  outer loop
    vertex 63.99999999999999 7.0 -2.9999999999999947
    vertex 63.99999999999999 11.0 0.0
    vertex 63.99999999999999 25.499999999999986 -2.9999999999999947
  endloop
endfacet
facet normal -1.0 -7.13476220924802e-17 1.1461952388827586e-15
  outer loop
    vertex 63.99999999999999 11.0 0.0
    vertex 64.0 9.499999999999998 9.999999999999998
    vertex 64.0 11.0 9.999999999999998
  endloop
endfacet
facet normal -1.0 -7.13476220924802e-17 1.1461952388827586e-15
  outer loop
    vertex 63.99999999999999 25.499999999999986 -2.9999999999999947
    vertex 63.99999999999999 11.0 0.0
    vertex 63.99999999999999 21.500000000000004 0.0
  endloop
endfacet
facet normal -1.0 -7.13476220924802e-17 1.1461952388827586e-15
  outer loop
    vertex 63.99999999999999 25.499999999999986 -2.9999999999999947
    vertex 63.99999999999999 21.500000000000004 0.0
    vertex 63.99999999999999 25.499999999999993 0.0
  endloop
endfacet
facet normal 1.0 -5.331618592961845e-16 5.000586618203824e-16
  outer loop
    vertex 74.0 30.499999999999996 -2.9999999999999947
    vertex 74.0 7.0 0.0
    vertex 74.0 7.0 -2.9999999999999947
  endloop
endfacet
facet normal 1.0 -5.331618592961845e-16 5.000586618203824e-16
  outer loop
    vertex 74.0 7.0 0.0
    vertex 74.0 30.499999999999996 -2.9999999999999947
    vertex 74.0 11.0 0.0
  endloop
endfacet
facet normal 1.0 -5.331618592961845e-16 5.000586618203824e-16
  outer loop
    vertex 74.0 7.0 0.0
    vertex 74.0 11.0 0.0
    vertex 73.99999999999997 9.499999999999998 9.999999999999998
  endloop
endfacet
facet normal 1.0 -5.331618592961845e-16 5.000586618203824e-16
  outer loop
    vertex 74.0 11.0 0.0
    vertex 74.0 30.499999999999996 -2.9999999999999947
    vertex 74.0 28.499999999999993 0.0
  endloop
endfacet
facet normal 1.0 -5.331618592961845e-16 5.000586618203824e-16
  outer loop
    vertex 74.0 28.499999999999993 0.0
    vertex 74.0 30.499999999999996 -2.9999999999999947
    vertex 74.0 28.499999999999993 20.0
  endloop
endfacet
facet normal 1.0 -5.331618592961845e-16 5.000586618203824e-16
  outer loop
    vertex 74.0 28.499999999999993 20.0
    vertex 74.0 30.499999999999996 -2.9999999999999947
    vertex 74.0 30.499999999999996 20.0
  endloop
endfacet
facet normal 1.0 -5.331618592961845e-16 5.000586618203824e-16
  outer loop
    vertex 73.99999999999997 11.0 9.999999999999998
    vertex 73.99999999999997 9.499999999999998 9.999999999999998
    vertex 74.0 11.0 0.0
  endloop
endfacet
facet normal -0.0 1.0 -0.0
  outer loop
    vertex 41.0 30.499999999999996 20.0
    vertex 44.000000000000036 30.499999999999996 0.0
    vertex 41.0 30.499999999999996 -2.9999999999999862
  endloop
endfacet
facet normal -0.0 1.0 -0.0
  outer loop
    vertex 44.000000000000036 30.499999999999996 0.0
    vertex 41.0 30.499999999999996 20.0
    vertex 44.0 30.499999999999996 20.0
  endloop
endfacet
facet normal -0.0 1.0 -0.0
  outer loop
    vertex 67.0 30.499999999999996 -2.9999999999999902
    vertex 63.99999999999999 30.499999999999996 0.0
    vertex 67.0 30.499999999999996 20.0
  endloop
endfacet
facet normal -0.0 1.0 -0.0
  outer loop
    vertex 63.99999999999999 30.499999999999996 0.0
    vertex 67.0 30.499999999999996 -2.9999999999999902
    vertex 41.0 30.499999999999996 -2.9999999999999862
  endloop
endfacet
facet normal -0.0 1.0 -0.0
  outer loop
    vertex 63.99999999999999 30.499999999999996 0.0
    vertex 41.0 30.499999999999996 -2.9999999999999862
    vertex 44.000000000000036 30.499999999999996 0.0
  endloop
endfacet
facet normal -0.0 1.0 -0.0
  outer loop
    vertex 67.0 30.499999999999996 20.0
    vertex 63.99999999999999 30.499999999999996 0.0
    vertex 63.99999999999999 30.499999999999996 20.0
  endloop
endfacet
facet normal -1.0 0.0 0.0
  outer loop
    vertex 37.0 32.5 -1.499999999999986
    vertex 37.0 30.499999999999996 -2.9999999999999862
    vertex 37.0 30.499999999999996 20.0
  endloop
endfacet
facet normal -1.0 0.0 0.0
  outer loop
    vertex 37.0 30.499999999999996 -2.9999999999999862
    vertex 37.0 32.5 -1.499999999999986
    vertex 37.0 32.5 -2.9999999999999862
  endloop
endfacet
facet normal 1.0 -0.0 -0.0
  outer loop
    vertex 41.0 32.5 -2.9999999999999862
    vertex 41.0 30.499999999999996 20.0
    vertex 41.0 30.499999999999996 -2.9999999999999862
  endloop
endfacet
facet normal 1.0 -0.0 -0.0
  outer loop
    vertex 41.0 30.499999999999996 20.0
    vertex 41.0 32.5 -2.9999999999999862
    vertex 41.0 32.5 -1.499999999999986
  endloop
endfacet
facet normal -1.7411923587780256e-17 0.9957012159921018 0.09262336892949798
  outer loop
    vertex 37.0 30.499999999999996 20.0
    vertex 41.0 32.5 -1.499999999999986
    vertex 37.0 32.5 -1.499999999999986
  endloop
endfacet
facet normal -1.7411923587780256e-17 0.9957012159921018 0.09262336892949798
  outer loop
    vertex 41.0 32.5 -1.499999999999986
    vertex 37.0 30.499999999999996 20.0
    vertex 41.0 30.499999999999996 20.0
  endloop
endfacet
facet normal -0.0 1.0 -0.0
  outer loop
    vertex 71.0 30.499999999999996 -2.9999999999999902
    vertex 74.0 30.499999999999996 20.0
    vertex 74.0 30.499999999999996 -2.9999999999999947
  endloop
endfacet
facet normal -0.0 1.0 -0.0
  outer loop
    vertex 74.0 30.499999999999996 20.0
    vertex 71.0 30.499999999999996 -2.9999999999999902
    vertex 71.0 30.499999999999996 20.0
  endloop
endfacet
facet normal -1.0 0.0 0.0
  outer loop
    vertex 84.0 1.0000000000000007 7.999999999999999
    vertex 84.0 3.0000000000000004 6.0
    vertex 84.0 1.5 0.0
  endloop
endfacet
facet normal -1.0 0.0 0.0
  outer loop
    vertex 84.0 3.0000000000000004 6.0
    vertex 84.0 1.0000000000000007 7.999999999999999
    vertex 84.0 4.0 7.999999999999999
  endloop
endfacet
facet normal -1.0 0.0 0.0
  outer loop
    vertex 84.0 3.0000000000000004 6.0
    vertex 84.0 4.0 7.999999999999999
    vertex 84.0 3.5000000000000004 6.0
  endloop
endfacet
facet normal -1.0 0.0 0.0
  outer loop
    vertex 84.0 1.0000000000000007 7.999999999999999
    vertex 84.0 -0.9999999999999994 -3.0
    vertex 84.0 -0.9999999999999996 0.0
  endloop
endfacet
facet normal -1.0 0.0 0.0
  outer loop
    vertex 84.0 -0.9999999999999994 -3.0
    vertex 84.0 1.0000000000000007 7.999999999999999
    vertex 84.0 1.5000000000000004 -3.0
  endloop
endfacet
facet normal -1.0 0.0 0.0
  outer loop
    vertex 84.0 1.5000000000000004 -3.0
    vertex 84.0 1.0000000000000007 7.999999999999999
    vertex 84.0 1.5 0.0
  endloop
endfacet
facet normal -3.0859111300122985e-31 0.9701425001453319 -0.24253562503633308
  outer loop
    vertex 84.0 3.0000000000000004 6.0
    vertex 86.49999999999999 1.5 0.0
    vertex 84.0 1.5 0.0
  endloop
endfacet
facet normal -3.0859111300122985e-31 0.9701425001453319 -0.24253562503633308
  outer loop
    vertex 86.49999999999999 1.5 0.0
    vertex 84.0 3.0000000000000004 6.0
    vertex 86.49999999999999 3.0000000000000004 6.0
  endloop
endfacet
facet normal -5.089492754597783e-17 -0.9701425001453319 0.24253562503633308
  outer loop
    vertex 1.9999999999999998 -0.9999999999999999 0.0
    vertex -1.9999999999999998 1.0000000000000009 7.999999999999999
    vertex -2.0 -0.9999999999999998 -1.9130630401080084e-16
  endloop
endfacet
facet normal -5.089492754597783e-17 -0.9701425001453319 0.24253562503633308
  outer loop
    vertex -1.9999999999999998 1.0000000000000009 7.999999999999999
    vertex 1.9999999999999998 -0.9999999999999999 0.0
    vertex 1.9999999999999991 1.0000000000000007 7.999999999999999
  endloop
endfacet
facet normal 1.0 -8.459899447643685e-15 8.459899447643694e-16
  outer loop
    vertex 44.000000000000036 30.499999999999996 0.0
    vertex 44.0 28.499999999999993 20.0
    vertex 44.0 28.499999999999993 0.0
  endloop
endfacet
facet normal 1.0 -8.459899447643685e-15 8.459899447643694e-16
  outer loop
    vertex 44.0 28.499999999999993 20.0
    vertex 44.000000000000036 30.499999999999996 0.0
    vertex 44.0 30.499999999999996 20.0
  endloop
endfacet
facet normal 0.707106781186548 0.7071067811865471 -0.0
  outer loop
    vertex 38.99999999999999 12.0 0.0
    vertex 39.99999999999999 11.0 9.999999999999998
    vertex 39.99999999999999 11.0 0.0
  endloop
endfacet
facet normal 0.707106781186548 0.7071067811865471 -0.0
  outer loop
    vertex 39.99999999999999 11.0 9.999999999999998
    vertex 38.99999999999999 12.0 0.0
    vertex 38.99999999999999 12.0 9.999999999999998
  endloop
endfacet
facet normal -0.707106781186548 0.7071067811865471 0.0
  outer loop
    vertex 38.99999999999999 12.0 9.999999999999998
    vertex 38.0 11.0 0.0
    vertex 38.0 11.0 9.999999999999998
  endloop
endfacet
facet normal -0.707106781186548 0.7071067811865471 0.0
  outer loop
    vertex 38.0 11.0 0.0
    vertex 38.99999999999999 12.0 9.999999999999998
    vertex 38.99999999999999 12.0 0.0
  endloop
endfacet
facet normal -0.0 1.0 -0.0
  outer loop
    vertex 39.99999999999999 11.0 9.999999999999998
    vertex 44.0 11.0 0.0
    vertex 39.99999999999999 11.0 0.0
  endloop
endfacet
facet normal -0.0 1.0 -0.0
  outer loop
    vertex 44.0 11.0 0.0
    vertex 39.99999999999999 11.0 9.999999999999998
    vertex 43.99999999999998 11.0 9.999999999999998
  endloop
endfacet
facet normal -0.0 1.0 -0.0
  outer loop
    vertex 70.0 11.0 9.999999999999998
    vertex 74.0 11.0 0.0
    vertex 70.0 11.0 0.0
  endloop
endfacet
facet normal -0.0 1.0 -0.0
  outer loop
    vertex 74.0 11.0 0.0
    vertex 70.0 11.0 9.999999999999998
    vertex 73.99999999999997 11.0 9.999999999999998
  endloop
endfacet
facet normal -2.5478993974178032e-17 2.9708605459934926e-16 -1.0
  outer loop
    vertex 37.0 30.499999999999996 -2.9999999999999862
    vertex 34.0 7.0 -2.9999999999999947
    vertex 34.0 30.499999999999996 -2.9999999999999947
  endloop
endfacet
facet normal -2.5478993974178032e-17 2.9708605459934926e-16 -1.0
  outer loop
    vertex 41.0 32.5 -2.9999999999999862
    vertex 37.0 30.499999999999996 -2.9999999999999862
    vertex 37.0 32.5 -2.9999999999999862
  endloop
endfacet
facet normal -2.5478993974178032e-17 2.9708605459934926e-16 -1.0
  outer loop
    vertex 41.0 30.499999999999996 -2.9999999999999862
    vertex 44.000000000000036 25.499999999999986 -2.9999999999999947
    vertex 44.0 7.0 -2.9999999999999947
  endloop
endfacet
facet normal -2.5478993974178032e-17 2.9708605459934926e-16 -1.0
  outer loop
    vertex 44.000000000000036 25.499999999999986 -2.9999999999999947
    vertex 41.0 30.499999999999996 -2.9999999999999862
    vertex 67.0 30.499999999999996 -2.9999999999999902
  endloop
endfacet
facet normal -2.5478993974178032e-17 2.9708605459934926e-16 -1.0
  outer loop
    vertex 44.000000000000036 25.499999999999986 -2.9999999999999947
    vertex 67.0 30.499999999999996 -2.9999999999999902
    vertex 63.99999999999999 25.499999999999986 -2.9999999999999947
  endloop
endfacet
facet normal -2.5478993974178032e-17 2.9708605459934926e-16 -1.0
  outer loop
    vertex 63.99999999999999 25.499999999999986 -2.9999999999999947
    vertex 67.0 30.499999999999996 -2.9999999999999902
    vertex 63.99999999999999 7.0 -2.9999999999999947
  endloop
endfacet
facet normal -2.5478993974178032e-17 2.9708605459934926e-16 -1.0
  outer loop
    vertex 71.0 32.5 -2.9999999999999902
    vertex 67.0 30.499999999999996 -2.9999999999999902
    vertex 67.0 32.5 -2.9999999999999902
  endloop
endfacet
facet normal -2.5478993974178032e-17 2.9708605459934926e-16 -1.0
  outer loop
    vertex 34.0 7.0 -2.9999999999999947
    vertex 1.9999999999999991 1.5 -3.0
    vertex -1.9999999999999984 7.0 -2.9999999999999947
  endloop
endfacet
facet normal -2.5478993974178032e-17 2.9708605459934926e-16 -1.0
  outer loop
    vertex 1.9999999999999991 1.5 -3.0
    vertex 34.0 7.0 -2.9999999999999947
    vertex 84.0 1.5000000000000004 -3.0
  endloop
endfacet
facet normal -2.5478993974178032e-17 2.9708605459934926e-16 -1.0
  outer loop
    vertex 84.0 1.5000000000000004 -3.0
    vertex 34.0 7.0 -2.9999999999999947
    vertex 44.0 7.0 -2.9999999999999947
  endloop
endfacet
facet normal -2.5478993974178032e-17 2.9708605459934926e-16 -1.0
  outer loop
    vertex 44.0 7.0 -2.9999999999999947
    vertex 34.0 7.0 -2.9999999999999947
    vertex 37.0 30.499999999999996 -2.9999999999999862
  endloop
endfacet
facet normal -2.5478993974178032e-17 2.9708605459934926e-16 -1.0
  outer loop
    vertex 44.0 7.0 -2.9999999999999947
    vertex 37.0 30.499999999999996 -2.9999999999999862
    vertex 41.0 30.499999999999996 -2.9999999999999862
  endloop
endfacet
facet normal -2.5478993974178032e-17 2.9708605459934926e-16 -1.0
  outer loop
    vertex 41.0 30.499999999999996 -2.9999999999999862
    vertex 37.0 30.499999999999996 -2.9999999999999862
    vertex 41.0 32.5 -2.9999999999999862
  endloop
endfacet
facet normal -2.5478993974178032e-17 2.9708605459934926e-16 -1.0
  outer loop
    vertex 84.0 1.5000000000000004 -3.0
    vertex 44.0 7.0 -2.9999999999999947
    vertex 63.99999999999999 7.0 -2.9999999999999947
  endloop
endfacet
facet normal -2.5478993974178032e-17 2.9708605459934926e-16 -1.0
  outer loop
    vertex 84.0 1.5000000000000004 -3.0
    vertex 63.99999999999999 7.0 -2.9999999999999947
    vertex 74.0 7.0 -2.9999999999999947
  endloop
endfacet
facet normal -2.5478993974178032e-17 2.9708605459934926e-16 -1.0
  outer loop
    vertex 74.0 7.0 -2.9999999999999947
    vertex 63.99999999999999 7.0 -2.9999999999999947
    vertex 67.0 30.499999999999996 -2.9999999999999902
  endloop
endfacet
facet normal -2.5478993974178032e-17 2.9708605459934926e-16 -1.0
  outer loop
    vertex 74.0 7.0 -2.9999999999999947
    vertex 67.0 30.499999999999996 -2.9999999999999902
    vertex 71.0 30.499999999999996 -2.9999999999999902
  endloop
endfacet
facet normal -2.5478993974178032e-17 2.9708605459934926e-16 -1.0
  outer loop
    vertex 71.0 30.499999999999996 -2.9999999999999902
    vertex 67.0 30.499999999999996 -2.9999999999999902
    vertex 71.0 32.5 -2.9999999999999902
  endloop
endfacet
facet normal -2.5478993974178032e-17 2.9708605459934926e-16 -1.0
  outer loop
    vertex 74.0 7.0 -2.9999999999999947
    vertex 71.0 30.499999999999996 -2.9999999999999902
    vertex 74.0 30.499999999999996 -2.9999999999999947
  endloop
endfacet
facet normal -2.5478993974178032e-17 2.9708605459934926e-16 -1.0
  outer loop
    vertex 84.0 1.5000000000000004 -3.0
    vertex 74.0 7.0 -2.9999999999999947
    vertex 88.0 7.0 -2.9999999999999947
  endloop
endfacet
facet normal -2.5478993974178032e-17 2.9708605459934926e-16 -1.0
  outer loop
    vertex 84.0 1.5000000000000004 -3.0
    vertex 88.0 7.0 -2.9999999999999947
    vertex 84.0 -0.9999999999999994 -3.0
  endloop
endfacet
facet normal -2.5478993974178032e-17 2.9708605459934926e-16 -1.0
  outer loop
    vertex 84.0 -0.9999999999999994 -3.0
    vertex 88.0 7.0 -2.9999999999999947
    vertex 88.0 -0.9999999999999994 -3.0
  endloop
endfacet
facet normal -2.5478993974178032e-17 2.9708605459934926e-16 -1.0
  outer loop
    vertex -1.9999999999999984 7.0 -2.9999999999999947
    vertex 1.9999999999999998 -0.9999999999999994 -3.0
    vertex -1.9999999999999998 -0.9999999999999992 -2.9999999999999947
  endloop
endfacet
facet normal -2.5478993974178032e-17 2.9708605459934926e-16 -1.0
  outer loop
    vertex 1.9999999999999998 -0.9999999999999994 -3.0
    vertex -1.9999999999999984 7.0 -2.9999999999999947
    vertex 1.9999999999999991 1.5 -3.0
  endloop
endfacet
facet normal -1.0 6.211196640062202e-32 5.639932965095795e-16
  outer loop
    vertex 34.00000000000001 9.499999999999998 9.999999999999998
    vertex 34.0 11.0 0.0
    vertex 34.0 7.0 0.0
  endloop
endfacet
facet normal -1.0 6.211196640062202e-32 5.639932965095795e-16
  outer loop
    vertex 34.0 11.0 0.0
    vertex 34.00000000000001 9.499999999999998 9.999999999999998
    vertex 34.00000000000001 11.0 9.999999999999998
  endloop
endfacet
facet normal 0.0 -1.0 0.0
  outer loop
    vertex 44.0 28.499999999999993 20.0
    vertex 34.0 28.499999999999993 0.0
    vertex 44.0 28.499999999999993 0.0
  endloop
endfacet
facet normal 0.0 -1.0 0.0
  outer loop
    vertex 34.0 28.499999999999993 0.0
    vertex 44.0 28.499999999999993 20.0
    vertex 34.0 28.499999999999993 20.0
  endloop
endfacet
facet normal 1.737213526902714e-16 -0.9701425001453321 0.24253562503633289
  outer loop
    vertex 43.99999999999998 9.499999999999998 9.999999999999998
    vertex 34.0 7.0 0.0
    vertex 44.0 7.0 0.0
  endloop
endfacet
facet normal 1.737213526902714e-16 -0.9701425001453321 0.24253562503633289
  outer loop
    vertex 34.0 7.0 0.0
    vertex 43.99999999999998 9.499999999999998 9.999999999999998
    vertex 34.00000000000001 9.499999999999998 9.999999999999998
  endloop
endfacet
facet normal -0.0 -0.0 1.0
  outer loop
    vertex 43.99999999999998 9.499999999999998 9.999999999999998
    vertex 34.00000000000001 11.0 9.999999999999998
    vertex 34.00000000000001 9.499999999999998 9.999999999999998
  endloop
endfacet
facet normal -0.0 -0.0 1.0
  outer loop
    vertex 34.00000000000001 11.0 9.999999999999998
    vertex 43.99999999999998 9.499999999999998 9.999999999999998
    vertex 38.0 11.0 9.999999999999998
  endloop
endfacet
facet normal -0.0 -0.0 1.0
  outer loop
    vertex 38.0 11.0 9.999999999999998
    vertex 43.99999999999998 9.499999999999998 9.999999999999998
    vertex 39.99999999999999 11.0 9.999999999999998
  endloop
endfacet
facet normal -0.0 -0.0 1.0
  outer loop
    vertex 38.0 11.0 9.999999999999998
    vertex 39.99999999999999 11.0 9.999999999999998
    vertex 38.99999999999999 12.0 9.999999999999998
  endloop
endfacet
facet normal -0.0 -0.0 1.0
  outer loop
    vertex 39.99999999999999 11.0 9.999999999999998
    vertex 43.99999999999998 9.499999999999998 9.999999999999998
    vertex 43.99999999999998 11.0 9.999999999999998
  endloop
endfacet
facet normal -0.0 1.0 -0.0
  outer loop
    vertex 34.00000000000001 11.0 9.999999999999998
    vertex 38.0 11.0 0.0
    vertex 34.0 11.0 0.0
  endloop
endfacet
facet normal -0.0 1.0 -0.0
  outer loop
    vertex 38.0 11.0 0.0
    vertex 34.00000000000001 11.0 9.999999999999998
    vertex 38.0 11.0 9.999999999999998
  endloop
endfacet
facet normal -0.0 1.0 2.9708605459934926e-16
  outer loop
    vertex 37.0 32.5 -1.499999999999986
    vertex 41.0 32.5 -2.9999999999999862
    vertex 37.0 32.5 -2.9999999999999862
  endloop
endfacet
facet normal -0.0 1.0 2.9708605459934926e-16
  outer loop
    vertex 41.0 32.5 -2.9999999999999862
    vertex 37.0 32.5 -1.499999999999986
    vertex 41.0 32.5 -1.499999999999986
  endloop
endfacet
facet normal -0.0 1.0 2.9708605459934926e-16
  outer loop
    vertex 67.0 32.5 -1.4999999999999902
    vertex 71.0 32.5 -2.9999999999999902
    vertex 67.0 32.5 -2.9999999999999902
  endloop
endfacet
facet normal -0.0 1.0 2.9708605459934926e-16
  outer loop
    vertex 71.0 32.5 -2.9999999999999902
    vertex 67.0 32.5 -1.4999999999999902
    vertex 71.0 32.5 -1.4999999999999902
  endloop
endfacet
facet normal -0.0 -0.0 1.0
  outer loop
    vertex 73.99999999999997 9.499999999999998 9.999999999999998
    vertex 64.0 11.0 9.999999999999998
    vertex 64.0 9.499999999999998 9.999999999999998
  endloop
endfacet
facet normal -0.0 -0.0 1.0
  outer loop
    vertex 64.0 11.0 9.999999999999998
    vertex 73.99999999999997 9.499999999999998 9.999999999999998
    vertex 68.0 11.0 9.999999999999998
  endloop
endfacet
facet normal -0.0 -0.0 1.0
  outer loop
    vertex 68.0 11.0 9.999999999999998
    vertex 73.99999999999997 9.499999999999998 9.999999999999998
    vertex 70.0 11.0 9.999999999999998
  endloop
endfacet
facet normal -0.0 -0.0 1.0
  outer loop
    vertex 68.0 11.0 9.999999999999998
    vertex 70.0 11.0 9.999999999999998
    vertex 69.0 12.0 9.999999999999998
  endloop
endfacet
facet normal -0.0 -0.0 1.0
  outer loop
    vertex 70.0 11.0 9.999999999999998
    vertex 73.99999999999997 9.499999999999998 9.999999999999998
    vertex 73.99999999999997 11.0 9.999999999999998
  endloop
endfacet
facet normal -0.0 1.0 -0.0
  outer loop
    vertex 64.0 11.0 9.999999999999998
    vertex 68.0 11.0 0.0
    vertex 63.99999999999999 11.0 0.0
  endloop
endfacet
facet normal -0.0 1.0 -0.0
  outer loop
    vertex 68.0 11.0 0.0
    vertex 64.0 11.0 9.999999999999998
    vertex 68.0 11.0 9.999999999999998
  endloop
endfacet
facet normal 7.238389695427921e-18 -0.9701425001453321 0.24253562503633289
  outer loop
    vertex 73.99999999999997 9.499999999999998 9.999999999999998
    vertex 63.99999999999999 7.0 0.0
    vertex 74.0 7.0 0.0
  endloop
endfacet
facet normal 7.238389695427921e-18 -0.9701425001453321 0.24253562503633289
  outer loop
    vertex 63.99999999999999 7.0 0.0
    vertex 73.99999999999997 9.499999999999998 9.999999999999998
    vertex 64.0 9.499999999999998 9.999999999999998
  endloop
endfacet
endsolid mount
